# xmcd CD database file
#
# Track frame offsets:
#	150
#	27882
#	58637
#	95545
#	132037
#	150710
#	174762
#	205422
#	230997
#	262352
#	301317
#
# Disc length: 4351 seconds
#
# Revision: 1
# Processed by: cddbd v1.4PL0 Copyright (c) Steve Scherf et al.
# Submitted via: CDex 1.50beta8
#
DISCID=9610fd0b
DTITLE=Akiko Grace - Jazz Street The Duo
DYEAR=2002
DGENRE=Jazz
TTITLE0=Cinema Paradiso
TTITLE1=So Be It
TTITLE2=Rain
TTITLE3=When I Fall In Love
TTITLE4=Straight No Chaser
TTITLE5=Como Fre
TTITLE6=Estate
TTITLE7=Triste
TTITLE8=My Soul
TTITLE9=White Roses For You
TTITLE10=Pulse Fiction (take-1)
EXTD=YEAR: 2002
EXTT0=
EXTT1=
EXTT2=
EXTT3=
EXTT4=
EXTT5=
EXTT6=
EXTT7=
EXTT8=
EXTT9=
EXTT10=
PLAYORDER=
